<svg version="1.1" id="Layer_1" xmlns="http://www.w3.org/2000/svg" xmlns:xlink="http://www.w3.org/1999/xlink" x="0px" y="0px" viewBox="0 0 200 200" style="enable-background:new 0 0 512 512;" xml:space="preserve" width="200" height="200"><path style="fill:#FFC61B;" cx="256" cy="256" r="256" d="M200 100A100 100 0 0 1 100 200A100 100 0 0 1 0 100A100 100 0 0 1 200 100z"/><path style="fill:#EAA22F;" d="M115.233 198.847c41.307 -6.313 74.295 -37.902 82.69 -78.486l-43.158 -43.996 -4.337 4.862 -38.95 -38.553 -33.897 53.536 -18.727 -18.725 -12.421 6.504 31.971 32.109 -25.174 20.955z"/><path style="fill:#06776A;" d="M143.998 100c0 -1.484 -0.074 -2.95 -0.219 -4.395 -0.195 -1.951 0.559 -3.876 2.061 -5.136l7.726 -6.479a5.867 5.867 0 0 0 1.311 -7.429l-7.14 -12.366a5.867 5.867 0 0 0 -7.089 -2.579l-9.474 3.451c-1.845 0.672 -3.891 0.36 -5.484 -0.787a43.984 43.984 0 0 0 -7.613 -4.403c-1.785 -0.806 -3.073 -2.421 -3.413 -4.35l-1.746 -9.921a5.867 5.867 0 0 0 -5.779 -4.85h-14.279a5.867 5.867 0 0 0 -5.779 4.85l-1.746 9.921c-0.339 1.929 -1.627 3.544 -3.413 4.35a43.945 43.945 0 0 0 -7.613 4.403c-1.593 1.148 -3.639 1.459 -5.484 0.787l-9.474 -3.451a5.867 5.867 0 0 0 -7.089 2.579l-7.14 12.366a5.867 5.867 0 0 0 1.311 7.429l7.726 6.479c1.502 1.26 2.256 3.184 2.061 5.136a44.297 44.297 0 0 0 0.003 8.821c0.196 1.956 -0.56 3.886 -2.07 5.146l-7.708 6.439a5.867 5.867 0 0 0 -1.32 7.436l7.13 12.35a5.867 5.867 0 0 0 7.1 2.575l9.43 -3.456c1.848 -0.677 3.901 -0.366 5.498 0.786a43.906 43.906 0 0 0 7.666 4.434c1.791 0.807 3.081 2.428 3.418 4.362l1.721 9.885a5.867 5.867 0 0 0 5.78 4.861h14.261a5.867 5.867 0 0 0 5.78 -4.861l1.721 -9.885c0.337 -1.935 1.627 -3.555 3.418 -4.362a43.945 43.945 0 0 0 7.666 -4.434c1.596 -1.152 3.649 -1.463 5.498 -0.786l9.43 3.456a5.867 5.867 0 0 0 7.1 -2.575l7.13 -12.35a5.867 5.867 0 0 0 -1.32 -7.436l-7.708 -6.439c-1.509 -1.261 -2.265 -3.19 -2.07 -5.146 0.15 -1.455 0.225 -2.932 0.225 -4.426"/><path style="fill:#CCD1D0;" d="M92.616 159.245h14.77c3.3 0 5.974 -2.675 5.974 -5.974v-29.37a0.852 0.852 0 0 0 -0.852 -0.852h-25.015a0.852 0.852 0 0 0 -0.852 0.852v29.37c0 3.299 2.675 5.974 5.975 5.974"/><path style="fill:#F5F5F5;" d="M113.53 71.733v26.77l-13.65 5.356 -13.649 -5.356v-26.648c-9.574 4.98 -16.118 14.985 -16.118 26.524 0 16.506 13.381 29.887 29.887 29.887 16.506 0 29.887 -13.381 29.887 -29.887 0 -11.634 -6.652 -21.709 -16.356 -26.646"/></svg>