<svg version="1.1" baseProfile="tiny" id="Layer_1" xmlns="http://www.w3.org/2000/svg" xmlns:xlink="http://www.w3.org/1999/xlink" width="400px" height="400px" viewBox="0 0 6 6" overflow="visible" xml:space="preserve"><g><path y="0" fill="none" width="24" height="24" d="M0 0H6V6H0V0z"/><g transform="translate(0 1)"><path fill-rule="evenodd" fill="#5C85DE" points="13.6,3.2 10.4,3.2 3,10 3,22.2 9,22.2 9,14 15,14 15,22.2 21,22.2 21,10 		
			" d="M3.4 0.8L2.6 0.8L0.75 2.5L0.75 5.55L2.25 5.55L2.25 3.5L3.75 3.5L3.75 5.55L5.25 5.55L5.25 2.5Z"/><path fill-rule="evenodd" fill="#85A4E6" points="12,3.2 10.4,3.2 3,10 3,22.2 9,22.2 9,14 12,14 		" d="M3 0.8L2.6 0.8L0.75 2.5L0.75 5.55L2.25 5.55L2.25 3.5L3 3.5Z"/><path fill-rule="evenodd" fill="#3367D6" points="13.1,3.7 3,14.8 3,11 12.5,2.6 		" d="M3.275 0.925L0.75 3.7L0.75 2.75L3.125 0.65Z"/><path fill-rule="evenodd" fill="#85A4E6" points="12,-0.1 0,11.9 1.8,13.7 12,3.5 22.2,13.7 24,11.9 		" d="M3 -0.025L0 2.975L0.45 3.425L3 0.875L5.55 3.425L6 2.975Z"/></g></g></svg>