<svg version="1.1" id="Layer_1" xmlns="http://www.w3.org/2000/svg" xmlns:xlink="http://www.w3.org/1999/xlink" x="0px" y="0px" viewBox="0 0 200 200" style="enable-background:new 0 0 512 512;" xml:space="preserve" width="200" height="200"><path style="fill:#687F82;" d="M110.361 3.081c-29.913 0.172 -53.893 24.892 -53.893 54.805v14.188h16.427v-14.303c0 -20.801 16.609 -38.061 37.409 -38.263 21.004 -0.203 38.155 16.823 38.155 37.781v29.372c0 4.454 3.463 8.247 7.914 8.405 4.673 0.166 8.513 -3.573 8.513 -8.208v-29.569C164.887 27.293 140.397 2.909 110.361 3.081"/><path style="fill:#4ACFD9;" d="M181.314 196.92H40.041V99.179c0 -6.804 5.516 -12.32 12.32 -12.32h116.632c6.804 0 12.32 5.516 12.32 12.32z"/><g><path style="fill:#FFD1A9;" d="M140.246 168.994c0 -16.33 -13.239 -29.569 -29.569 -29.569s-29.569 13.239 -29.569 29.569v16.427h59.137z"/><path style="fill:#FFD1A9;" cx="283.335" cy="298.053" r="46.259" d="M128.748 116.427A18.07 18.07 0 0 1 110.678 134.497A18.07 18.07 0 0 1 92.608 116.427A18.07 18.07 0 0 1 128.748 116.427z"/></g><path style="fill:#0295AA;" d="M52.361 86.858c-6.805 0 -12.32 5.516 -12.32 12.32v97.741h70.637V86.858z"/><g><path style="fill:#FF8C29;" d="M81.109 168.994v16.427h29.569v-45.996c-16.331 0 -29.569 13.239 -29.569 29.569"/><path style="fill:#FF8C29;" d="M92.608 116.427c0 9.98 8.09 18.07 18.07 18.07v-36.139c-9.98 0 -18.07 8.09 -18.07 18.07"/></g><g><path style="fill:#FFFFFF;" d="M164.887 152.361a3.08 3.08 0 0 1 -3.08 -3.08V108.214a3.08 3.08 0 0 1 3.08 -3.08 3.08 3.08 0 0 1 3.08 3.08V149.281a3.08 3.08 0 0 1 -3.08 3.08"/><path style="fill:#FFFFFF;" d="M164.887 180.287a3.08 3.08 0 0 1 -3.08 -3.08v-16.427a3.08 3.08 0 0 1 3.08 -3.08 3.08 3.08 0 0 1 3.08 3.08v16.427a3.08 3.08 0 0 1 -3.08 3.08"/></g><g><path style="fill:#F0353D;" d="M31.463 74.639h-12.777c-1.701 0 -3.08 -1.379 -3.08 -3.08s1.379 -3.08 3.08 -3.08h12.777c1.701 0 3.08 1.379 3.08 3.08s-1.379 3.08 -3.08 3.08"/><path style="fill:#F0353D;" d="M35.03 64.184a3.07 3.07 0 0 1 -2.178 -0.902l-8.131 -8.131c-1.203 -1.203 -1.203 -3.153 0 -4.356s3.153 -1.203 4.355 0l8.131 8.131a3.081 3.081 0 0 1 -2.178 5.259"/><path style="fill:#F0353D;" d="M26.817 93.224a3.07 3.07 0 0 1 -2.178 -0.902 3.08 3.08 0 0 1 0 -4.355l8.131 -8.131a3.08 3.08 0 1 1 4.355 4.355l-8.131 8.131a3.07 3.07 0 0 1 -2.178 0.902"/></g><path d="M168.994 83.778h-1.027v-26.489c0 -15.342 -6.007 -29.763 -16.915 -40.609C140.225 5.916 125.9 0 110.681 0l-0.338 0.001C78.938 0.181 53.388 26.148 53.388 57.886v14.188a3.08 3.08 0 0 0 3.08 3.08h16.427a3.08 3.08 0 0 0 3.08 -3.08v-14.303c0 -19.216 15.414 -34.999 34.359 -35.182 9.329 -0.073 18.11 3.48 24.748 10.055 6.64 6.576 10.297 15.329 10.297 24.646v26.489H52.361c-8.492 0 -15.4 6.909 -15.4 15.4v97.741a3.08 3.08 0 0 0 3.08 3.08h141.273a3.08 3.08 0 0 0 3.08 -3.08V99.179c0 -8.492 -6.908 -15.4 -15.4 -15.4M139.418 28.267c-7.816 -7.741 -18.166 -11.957 -29.143 -11.838 -22.31 0.216 -40.46 18.762 -40.46 41.342v11.223h-10.267v-11.108c0 -28.36 22.802 -51.564 50.83 -51.725l0.301 -0.001c13.58 0 26.366 5.281 36.029 14.889 9.736 9.68 15.098 22.551 15.098 36.241v26.489h-10.267V57.289c0 -10.973 -4.306 -21.28 -12.123 -29.022m38.816 165.573H43.121V99.179c0 -5.095 4.145 -9.24 9.24 -9.24h116.632c5.095 0 9.24 4.145 9.24 9.24z"/><path d="M116.241 136.829c8.97 -2.45 15.586 -10.666 15.586 -20.402 0 -11.662 -9.488 -21.15 -21.15 -21.15s-21.15 9.488 -21.15 21.15c0 9.736 6.616 17.952 15.586 20.402 -15.36 2.65 -27.085 16.059 -27.085 32.165v16.427a3.08 3.08 0 0 0 3.08 3.08h59.137a3.08 3.08 0 0 0 3.08 -3.08v-16.427c0.001 -16.105 -11.724 -29.515 -27.084 -32.165m-20.554 -20.402c0 -8.265 6.725 -14.99 14.99 -14.99s14.99 6.725 14.99 14.99 -6.725 14.99 -14.99 14.99 -14.99 -6.724 -14.99 -14.99m41.479 65.914H84.189v-13.347c0 -14.606 11.883 -26.489 26.489 -26.489s26.489 11.883 26.489 26.489z"/></svg>