<?xml version="1.0" encoding="iso-8859-1"?>
<!-- Generator: Adobe Illustrator 19.0.0, SVG Export Plug-In . SVG Version: 6.00 Build 0)  -->
<!-- License: CC0. Made by SVG Repo: https://www.svgrepo.com/svg/106450/helicopter -->
<svg version="1.1" id="Layer_1" xmlns="http://www.w3.org/2000/svg" xmlns:xlink="http://www.w3.org/1999/xlink" x="0px" y="0px"
	 viewBox="0 0 504.131 504.131" style="enable-background:new 0 0 504.131 504.131;" xml:space="preserve">
<circle style="fill:#ED9200;" cx="252.065" cy="252.069" r="252.062"/>
<path style="fill:#EA6F00;" d="M73.834,73.823c98.43-98.43,258.032-98.43,356.462,0c98.43,98.446,98.446,258.032,0,356.478"/>
<path style="fill:#363D3B;" d="M441.97,350.933h-67.742v-18.597h28.231c20.787,0,37.675-16.849,37.675-37.66
	c0-16.337-10.453-30.09-24.97-35.32c0.063-0.709,0.181-1.418,0.181-2.135h-0.591c0-20.819-14.501-37.66-49.16-37.66h-53.65v-21.37
	c0-4.08-3.293-7.373-7.373-7.373s-7.381,3.293-7.381,7.373v21.354H133.085c-5.679-18.542-22.922-32.028-43.315-32.028
	c-25.025,0-45.308,20.291-45.308,45.308c0,25.033,20.283,45.308,45.308,45.308c16.03,0,30.082-8.357,38.148-20.921h7.136
	c0,15.77,42.504,29.263,72.16,34.879c-0.063,0.859-0.268,1.694-0.268,2.584c0,20.819,16.872,37.66,37.675,37.66h24.962v18.597
	h-67.742c-3.261,0-5.9,2.631-5.9,5.876c0,3.261,2.639,5.892,5.9,5.892H441.97c3.253,0,5.884-2.631,5.884-5.892
	C447.854,353.564,445.223,350.933,441.97,350.933z M275.917,332.327h91.971v18.597h-91.971V332.327z"/>
<path style="fill:#1D2321;" d="M447.854,356.809c0-3.245-2.631-5.876-5.884-5.876h-67.742v-18.597h28.231
	c20.787,0,37.675-16.849,37.675-37.66c0-16.337-10.453-30.09-24.97-35.32c0.063-0.709,0.181-1.418,0.181-2.135h-0.591
	c0-20.819-14.501-37.66-49.16-37.66h-53.65v-21.37c0-4.08-3.293-7.373-7.373-7.373s-7.381,3.293-7.381,7.373v21.354h-77.666
	l112.782,112.782h35.564v18.597h-16.959l11.768,11.768h79.273C445.223,362.701,447.854,360.07,447.854,356.809z"/>
<g>
	<path style="fill:#363D3B;" d="M179.724,206.1c6.971,0,116.964-5.663,116.964-12.642c0-6.979-109.993-12.642-116.964-12.642
		c-6.979,0-12.642,5.664-12.642,12.642C167.081,200.436,172.753,206.1,179.724,206.1z"/>
	<path style="fill:#363D3B;" d="M429.454,206.1c6.971,0,12.642-5.663,12.642-12.642c0-6.979-5.679-12.642-12.642-12.642
		c-6.979,0-116.972,5.664-116.972,12.642C312.481,200.436,422.475,206.1,429.454,206.1z"/>
</g>
<g>
	<path style="fill:#ED9200;" d="M312.064,253.96c0,5.506-4.458,9.972-9.972,9.972l0,0c-5.506,0-9.972-4.458-9.972-9.972v-5.427
		c0-5.506,4.458-9.972,9.972-9.972l0,0c5.506,0,9.972,4.458,9.972,9.972V253.96z"/>
	<path style="fill:#ED9200;" d="M348.314,253.96c0,5.506-4.458,9.972-9.972,9.972l0,0c-5.506,0-9.972-4.458-9.972-9.972v-5.427
		c0-5.506,4.458-9.972,9.972-9.972l0,0c5.506,0,9.972,4.458,9.972,9.972V253.96z"/>
	<path style="fill:#ED9200;" d="M384.555,253.96c0,5.506-4.458,9.972-9.972,9.972l0,0c-5.506,0-9.972-4.458-9.972-9.972v-5.427
		c0-5.506,4.458-9.972,9.972-9.972l0,0c5.506,0,9.972,4.458,9.972,9.972V253.96z"/>
</g>
</svg>
