<svg width="250px" height="250px" viewBox="0 0 15.451 15.451" xmlns="http://www.w3.org/2000/svg"><title/><g data-name="Layer 2" id="Layer_2"><g data-name="—ÎÓÈ 1" id="_ÎÓÈ_1"><path cx="30.8999" cy="30.8999" fill="#9f82bb" r="30.8999" d="M15.45 7.725A7.725 7.725 0 0 1 7.725 15.45A7.725 7.725 0 0 1 0 7.725A7.725 7.725 0 0 1 15.45 7.725z"/><path d="m5.814 9.67 3.977 0.03v3.229l-3.977 -0.03z" fill="#f9dca4" fill-rule="evenodd"/><path d="M13.37 12.998A7.702 7.702 0 0 1 7.725 15.45a7.9 7.9 0 0 1 -2.308 -0.35 7.775 7.775 0 0 1 -3.406 -2.176l0.321 -0.775 3.481 -1.553c0 1.134 0.38 1.765 1.912 1.788 1.893 0.028 2.065 -0.629 2.065 -1.798l3.197 1.571z" fill="#ffffff" fill-rule="evenodd"/><path d="M9.791 9.694v0.895c0 0.074 -0.001 0.201 -0.007 0.318 -1.039 1.39 -3.578 0.637 -3.943 -1.263z" fill-rule="evenodd" opacity="0.11"/><path d="M7.782 2.108c5.32 0 3.247 8.816 0 8.816 -3.067 0 -5.32 -8.816 0 -8.816" fill="#ffe8be" fill-rule="evenodd"/><path d="M4.591 6.011c-0.767 0.335 -0.115 1.922 0.368 1.915a8 8 0 0 1 -0.368 -1.915" fill="#f9dca4" fill-rule="evenodd"/><path d="M11.035 6.011c0.767 0.335 0.115 1.922 -0.368 1.915a8 8 0 0 0 0.368 -1.915" fill="#f9dca4" fill-rule="evenodd"/><path d="M5.509 8.775a0.475 0.475 0 0 1 -0.017 -0.126v-0.001a0.355 0.355 0 0 1 0.305 -0.34 0.262 0.262 0 0 0 0.227 0.436 1 1 0 0 0 0.245 -0.068c0.073 -0.034 0.152 -0.072 0.236 -0.12a3.25 3.25 0 0 0 0.356 -0.254 0.76 0.76 0 0 1 0.477 -0.197 0.5 0.5 0 0 1 0.323 0.117 0.7 0.7 0 0 1 0.153 0.164 0.7 0.7 0 0 1 0.153 -0.164 0.5 0.5 0 0 1 0.323 -0.117 0.76 0.76 0 0 1 0.478 0.197 3.25 3.25 0 0 0 0.356 0.254c0.084 0.048 0.163 0.087 0.236 0.12a1 1 0 0 0 0.245 0.068 0.262 0.262 0 0 0 0.227 -0.436 0.355 0.355 0 0 1 0.305 0.34h0.001l0 0.002a0.475 0.475 0 0 1 -0.017 0.126c-0.195 0.908 -1.843 0.692 -2.306 0.134 -0.463 0.558 -2.111 0.774 -2.306 -0.134" fill="#8a5c42" fill-rule="evenodd"/><path d="M6.608 1.435h2.376a2.132 2.132 0 0 1 2.126 2.126v1.647H4.482v-1.647a2.132 2.132 0 0 1 2.126 -2.126" fill="#464449" fill-rule="evenodd"/><path d="M3.171 4.957h9.249a0.343 0.343 0 0 1 0.342 0.342 0.343 0.343 0 0 1 -0.342 0.343H3.171a0.343 0.343 0 0 1 -0.342 -0.343 0.343 0.343 0 0 1 0.342 -0.342" fill="#333" fill-rule="evenodd"/><path d="M4.482 3.965H11.11v0.993H4.482z" fill="#677079"/><path d="M7.355 12.068v3.373a7.25 7.25 0 0 0 0.882 -0.007v-3.365z" fill="#d5e1ed" fill-rule="evenodd"/><path d="m5.814 10.544 1.541 1.82 -2.209 0.73 -0.006 -2.256z" fill="#d5e1ed" fill-rule="evenodd"/><path d="m9.798 10.544 -1.541 1.82 2.209 0.73 0.005 -2.256z" fill="#d5e1ed" fill-rule="evenodd"/><path d="m6.005 11.483 1.272 0.495a0.645 0.645 0 0 1 1.012 0.01l1.298 -0.505v1.801l-1.298 -0.504a0.645 0.645 0 0 1 -1.011 0.01l-1.273 0.494z" fill="#464449" fill-rule="evenodd"/><path d="m3.779 11.503 0.826 -0.368v3.659a8.75 8.75 0 0 1 -0.826 -0.426z" fill="#8a5c42" fill-rule="evenodd"/><path d="m11.733 11.541 -0.826 -0.406v3.632a7.75 7.75 0 0 0 0.826 -0.436z" fill="#8a5c42" fill-rule="evenodd"/></g></g></svg>