<svg width="200px" height="200px" viewBox="0 0 9 9" xmlns="http://www.w3.org/2000/svg" xmlns:xlink="http://www.w3.org/1999/xlink" aria-hidden="true" role="img" class="iconify iconify--twemoji" preserveAspectRatio="xMidYMid meet"><path fill="#464F25" d="M8.25 3.75c-0.247 -1.897 -1.151 -3.5 -3.75 -3.5S0.997 1.853 0.75 3.75c-0.038 0.292 -0.5 0.5 -0.5 1.5 0 0.5 0.342 0.891 0.75 1 0.776 0.207 0.75 -0.25 3.5 -0.25s2.724 0.457 3.5 0.25c0.408 -0.109 0.75 -0.5 0.75 -1 0 -1 -0.462 -1.208 -0.5 -1.5"/><path fill="#383A18" d="M4.5 3.767C1.901 3.767 0.5 4.25 0.5 5.25c0 0.5 0.091 -0.044 0.5 0.065 0.776 0.207 0.75 -0.579 3.5 -0.579s2.724 0.786 3.5 0.579c0.408 -0.109 0.5 0.435 0.5 -0.065 0 -1 -1.4 -1.483 -4 -1.483"/><path fill="#C1694F" d="M4.5 8.492C2.183 8.492 1.008 7.485 1.008 5.5S2.183 2.509 4.5 2.509c2.317 0 3.491 1.006 3.491 2.991S6.817 8.492 4.5 8.492m0 -5.5C2.447 2.991 1.492 3.788 1.492 5.5S2.447 8.008 4.5 8.008 7.508 7.212 7.508 5.5 6.553 2.991 4.5 2.991"/><path fill="#662113" d="M6 8c0 0.414 -0.671 0.75 -1.5 0.75s-1.5 -0.336 -1.5 -0.75 0.671 -0.25 1.5 -0.25 1.5 -0.164 1.5 0.25"/><path fill="#717735" d="M8.25 3.75c-0.247 -1.897 -1.151 -3.5 -3.75 -3.5S0.997 1.853 0.75 3.75c-0.038 0.292 -0.5 0.5 -0.5 1.5 0 0.5 0.342 0.891 0.75 1 0 -1 0 -2 3.5 -2s3.5 1 3.5 2c0.408 -0.109 0.75 -0.5 0.75 -1 0 -1 -0.462 -1.208 -0.5 -1.5"/><path fill="#A3A364" d="M4.5 3.25c-1.75 0 -4.25 0.25 -4.25 2 0 0.5 0.342 0.891 0.75 1 0 -1 0 -2 3.5 -2s3.5 1 3.5 2c0.408 -0.109 0.75 -0.5 0.75 -1 0 -1.75 -2.75 -2 -4.25 -2"/><path fill="#677032" d="M4.5 4C1.901 4 0.25 4.25 0.25 5.25c0 0.5 0.342 0.891 0.75 1 0 -1 0 -2 3.5 -2s3.5 1 3.5 2c0.408 -0.109 0.75 -0.5 0.75 -1 0 -1 -1.651 -1.25 -4.25 -1.25"/></svg>