<svg fill="#3b82f6" width="20px" height="20px" viewBox="-0.038 0 0.6 0.6" xmlns="http://www.w3.org/2000/svg">
  <path d="M0.082 0.587a0.125 0.125 0 0 1 -0.001 -0.027l0 0 0 -0.021 0.027 -0.001 0.013 -0.019c0.005 -0.009 0.011 -0.016 0.017 -0.023l0 0 0.004 -0.003h0.126c0.122 0 0.127 0 0.13 0.003 0.006 0.007 0.011 0.014 0.016 0.022l0 0.001 0.013 0.02 0.027 0.001 0 0.018c0.001 0.026 0 0.032 -0.006 0.038a0.012 0.012 0 0 1 -0.011 0.005h0l-0.001 0a0.013 0.013 0 0 1 -0.01 -0.005l0 0c-0.004 -0.004 -0.044 -0.061 -0.046 -0.066a1.05 1.05 0 0 0 -0.073 -0.002q-0.021 0 -0.042 0.001l0.002 0 -0.112 0 -0.022 0.032a0.425 0.425 0 0 1 -0.026 0.037l0.001 -0.001a0.015 0.015 0 0 1 -0.01 0.003H0.098a0.017 0.017 0 0 1 -0.017 -0.012l0 0zm0.185 -0.127 -0.115 0 -0.022 -0.023 -0.023 -0.023v-0.061c0 -0.033 0.001 -0.067 0.001 -0.074a0.161 0.161 0 0 1 0.087 -0.127l0.001 0c0.012 -0.006 0.025 -0.011 0.039 -0.014l0.001 0a0.193 0.193 0 0 1 0.072 0.002l-0.001 0a0.164 0.164 0 0 1 0.072 0.041l0 0a0.16 0.16 0 0 1 0.045 0.083l0 0.001a0.55 0.55 0 0 1 0.003 0.08l0 -0.001 0.001 0.069 -0.023 0.023 -0.023 0.023zm-0.022 -0.064a0.017 0.017 0 0 0 -0.006 0.024l0 0c0.004 0.007 0.008 0.008 0.029 0.008h0.019l0.005 -0.005a0.017 0.017 0 0 0 -0.003 -0.028l0 0c-0.004 -0.002 -0.007 -0.003 -0.022 -0.003 -0.016 0 -0.018 0 -0.023 0.003zM0.15 0.251a0.133 0.133 0 0 0 -0.008 0.056l0 0 0 0.026 0.023 0.023 0.023 0.023 0.011 0c0.011 0 0.011 0 0.017 -0.007l0.006 -0.006h0.092l0.007 0.006 0.006 0.006h0.022l0.045 -0.045v-0.026a0.132 0.132 0 0 0 -0.01 -0.06l0 0.001a0.126 0.126 0 0 0 -0.093 -0.076l-0.001 0a0.118 0.118 0 0 0 -0.023 -0.002h0a0.127 0.127 0 0 0 -0.117 0.08l0 0.001zm0.086 -0.148 0.003 -0.022c0.002 -0.012 0.003 -0.022 0.003 -0.022s-0.055 0 -0.121 0H0V0.025h0.242V0.022a0.027 0.027 0 0 1 0.015 -0.02l0 0a0.032 0.032 0 0 1 0.02 0.001l0 0c0.007 0.003 0.013 0.01 0.014 0.018l0 0 0.001 0.006h0.242v0.034h-0.242l0.001 0.004c0.002 0.011 0.005 0.035 0.005 0.037s-0.003 0.002 -0.031 0.002z"/>
</svg>
